<svg xmlns="http://www.w3.org/2000/svg" xml:space="preserve" width="128" height="128" viewBox="0 0 28 28"><path fill="#DEFF8F" d="M8.025 11.077c-2.419-.722-4.594.136-4.892 1.306-.44 1.729.181 3.764 2.296 4.857.961.497 1.763.389 3.267-1.269.968-1.067.658-4.497-.671-4.894z"/><path fill="#FFE577" d="M16.894 5.916c-1.938-2.241-4.546-3.023-5.507-2.269-1.42 1.115-1.985 3.205-.556 5.543.65 1.063 1.491 1.521 3.906 1.19 1.553-.213 3.222-3.232 2.157-4.464z"/><path fill="#FF7C66" d="M25.368 3.942c-2.057-1.545-4.435-1.548-5.13-.581-1.026 1.43-1.147 3.529.489 5.305.744.807 1.547 1 3.565.022 1.299-.628 2.207-3.897 1.076-4.746z"/><path d="M25.5 25h-23a.5.5 0 0 1 0-1h23a.5.5 0 0 1 0 1zM6 17c-1.654 0-3-1.346-3-3s1.346-3 3-3 3 1.346 3 3-1.346 3-3 3zm0-5c-1.103 0-2 .897-2 2s.897 2 2 2 2-.897 2-2-.897-2-2-2zM14 10c-1.654 0-3-1.346-3-3s1.346-3 3-3 3 1.346 3 3-1.346 3-3 3zm0-5c-1.103 0-2 .897-2 2s.897 2 2 2 2-.897 2-2-.897-2-2-2zM22 8c-1.654 0-3-1.346-3-3s1.346-3 3-3 3 1.346 3 3-1.346 3-3 3zm0-5c-1.103 0-2 .897-2 2s.897 2 2 2 2-.897 2-2-.897-2-2-2z"/><path d="M22 25a.5.5 0 0 1-.5-.5v-14a.5.5 0 0 1 1 0v14a.5.5 0 0 1-.5.5zM14 25a.5.5 0 0 1-.5-.5v-12a.5.5 0 0 1 1 0v12a.5.5 0 0 1-.5.5zM6 25a.5.5 0 0 1-.5-.5v-5a.5.5 0 0 1 1 0v5a.5.5 0 0 1-.5.5zM7.88 12.85a.499.499 0 0 1-.329-.877l4.24-3.699a.501.501 0 0 1 .658.754l-4.24 3.699a.502.502 0 0 1-.329.123zM16.42 6.89a.5.5 0 0 1-.12-.985l3.16-.779a.5.5 0 0 1 .24.969l-3.16.779a.461.461 0 0 1-.12.016z"/></svg>