<svg xmlns="http://www.w3.org/2000/svg" xml:space="preserve" width="128" height="128" viewBox="0 0 28 28"><path fill="#FF7C66" d="M11.555 9.955C14.667 11.5 15.927 9.658 18.5 8c.75-.483 5.167-2.5 3.333-5.5-1.785-2.921-6.193.328-10 2.833-1.449.955-1.608 3.962-.278 4.622z"/><path fill="none" stroke="#000" stroke-linecap="round" stroke-linejoin="round" stroke-miterlimit="10" d="M2.5 14.5v9h3l2-7.886S5.792 14.5 2.5 14.5z"/><path fill="none" stroke="#000" stroke-linecap="round" stroke-linejoin="round" stroke-miterlimit="10" d="M11.5 20.5s2.75 1 4.75 1S21 20 23 20s2.5 1.5 2.5 1.5-7.5 4-10.5 4c-2.39 0-7.31-2.22-9.22-3.12"/><path fill="none" stroke="#000" stroke-linecap="round" stroke-linejoin="round" stroke-miterlimit="10" d="m7.32 16.32 9.65 2.33c.9.21 1.53 1.02 1.53 1.94v.5M16.5 13.5v-7M18.5 6.5h-2v-1a3 3 0 0 1 3-3h2v1a3 3 0 0 1-3 3zM12.5 5.5h-2v1a4 4 0 0 0 4 4h2v-1a4 4 0 0 0-4-4z"/></svg>