<svg xmlns="http://www.w3.org/2000/svg" xml:space="preserve" width="128" height="128" viewBox="0 0 28 28"><path fill="#FFAB66" d="M22.651 18.293c-.337-1.752-.861-5.935-4.428-6.769-3.217-.752-8.849 1.37-9.515 3.806-1.796 6.571 2.446 9.691 7.431 9.432 3.926-.203 6.875-4.583 6.512-6.469z"/><path d="M18 26c-4.411 0-8-3.589-8-8s3.589-8 8-8 8 3.589 8 8-3.589 8-8 8zm0-15c-3.86 0-7 3.141-7 7s3.14 7 7 7 7-3.141 7-7-3.14-7-7-7z"/><path d="M18 26a.5.5 0 0 1-.5-.5v-15a.5.5 0 0 1 1 0v15a.5.5 0 0 1-.5.5zM4 9H2.5a.5.5 0 0 1 0-1H4a1.001 1.001 0 0 0 0-2H2.5a.5.5 0 0 1-.5-.5v-3a.5.5 0 0 1 .5-.5h3a.5.5 0 0 1 0 1H3v2h1c1.103 0 2 .897 2 2s-.897 2-2 2zM12.5 9a.5.5 0 0 1-.447-.724l3-6a.5.5 0 0 1 .895.447l-3 6A.503.503 0 0 1 12.5 9zM12.75 3.5a.75.75 0 0 1 0-1.5.75.75 0 0 1 0 1.5zM15.25 9a.75.75 0 0 1 0-1.5.75.75 0 0 1 0 1.5zM10.5 6a.5.5 0 0 1-.5-.5v-2a.5.5 0 0 0-.5-.5h-1a.5.5 0 0 0-.5.5v2a.5.5 0 0 1-1 0v-2C7 2.673 7.673 2 8.5 2h1c.827 0 1.5.673 1.5 1.5v2a.5.5 0 0 1-.5.5z"/><path d="M9.5 9h-1C7.673 9 7 8.327 7 7.5v-2a.5.5 0 0 1 1 0v2a.5.5 0 0 0 .5.5h1a.5.5 0 0 0 .5-.5v-2a.5.5 0 0 1 1 0v2c0 .827-.673 1.5-1.5 1.5z"/></svg>