<svg xmlns="http://www.w3.org/2000/svg" width="128" height="128" viewBox="0 0 24 24"><path fill="#FFE577" d="M21.15 13.284c1.982-6.442-.954-9.528-2.613-10.45C13.835.223 6.123 2.915 4.43 5.448c-2.612 3.908-3.316 8.547-1.195 12.776 2.24 4.466 7.585 4.266 9.032 1.853 3.135-5.224 6.793 0 8.883-6.792Z"/><path fill-rule="evenodd" d="M3.76 20.939a.5.5 0 0 1-.26-.439v-19A.5.5 0 0 1 4 1a19.483 19.483 0 0 1 16.421 8.996.5.5 0 0 1-.152.69l-10.002 6.4a.5.5 0 1 1-.54-.843l9.577-6.126A18.495 18.495 0 0 0 4.5 2.007v17.58l1.73-1.107a.5.5 0 0 1 .538.843L4.27 20.92a.5.5 0 0 1-.51.018Z"/><g fill-rule="evenodd"><path d="M8.998 5.5a1.5 1.5 0 1 0 0 2.999 1.5 1.5 0 0 0 0-2.999ZM6.498 7a2.5 2.5 0 1 1 5-.001 2.5 2.5 0 0 1-5 .001ZM9.997 16.5a.5.5 0 0 1 .5.5v3.222a1.678 1.678 0 0 1-3.044.975l-1.361-1.906a.5.5 0 1 1 .814-.582l1.36 1.907a.678.678 0 0 0 1.231-.394V17a.5.5 0 0 1 .5-.5ZM15.959 9.314a.5.5 0 0 1-.279.65l-2.499 1a.5.5 0 0 1-.371-.928l2.498-1a.5.5 0 0 1 .65.278ZM7.598 11.2a.5.5 0 0 1 .7-.1l2 1.5a.5.5 0 1 1-.601.8l-2-1.5a.5.5 0 0 1-.099-.7ZM7.352 14.646a.5.5 0 0 1 0 .707l-1 1a.5.5 0 1 1-.707-.707l1-1a.5.5 0 0 1 .707 0Z"/></g></svg>