<svg xmlns="http://www.w3.org/2000/svg" xml:space="preserve" width="128" height="128" viewBox="0 0 28 28"><path fill="#FFE577" d="M4.937 6.563C2.665 9.154 4.812 20.813 7 22.438c2.187 1.625 14.125 3.062 16.812.812 2.977-2.493 3.625-19.313.5-20.75C21.187 1.063 8.5 2.5 4.937 6.563z"/><path d="M6.5 19a.5.5 0 0 1-.354-.853l5-5a.497.497 0 0 1 .475-.131l7.726 1.931 5.8-5.8a.5.5 0 0 1 .707.707l-6 6a.494.494 0 0 1-.475.131l-7.726-1.931-4.8 4.8A.498.498 0 0 1 6.5 19z"/><path d="M25.5 14a.5.5 0 0 1-.5-.5V10h-3.5a.5.5 0 0 1 0-1h4a.5.5 0 0 1 .5.5v4a.5.5 0 0 1-.5.5zM25.5 25h-23a.5.5 0 0 1 0-1h23a.5.5 0 0 1 0 1z"/><path d="M3.5 26a.5.5 0 0 1-.5-.5v-23a.5.5 0 0 1 1 0v23a.5.5 0 0 1-.5.5z"/></svg>