<svg xmlns="http://www.w3.org/2000/svg" xml:space="preserve" width="128" height="128" viewBox="0 0 28 28"><path fill="#FF7C66" d="M24.074 4.427C18.898-.962 6.279 4.44 4.348 12.429c-1.552 6.419 6.077 16.187 12.734 10.659 2.91-2.417 10.394-15.119 6.992-18.661z"/><path d="M14 26a.457.457 0 0 1-.127-.017C13.774 25.958 4 23.28 4 14.179V6a.5.5 0 0 1 .327-.469l9.5-3.5a.502.502 0 0 1 .346 0l9.5 3.5A.5.5 0 0 1 24 6v8.179c0 9.102-9.774 11.779-9.873 11.805A.497.497 0 0 1 14 26zM5 6.349v7.83c0 7.882 7.85 10.466 9 10.802 1.15-.336 9-2.92 9-10.802v-7.83l-9-3.316-9 3.316z"/><path d="M14.5 20h-1c-.827 0-1.5-.673-1.5-1.5V16H9.5c-.827 0-1.5-.673-1.5-1.5v-1c0-.827.673-1.5 1.5-1.5H12V9.5c0-.827.673-1.5 1.5-1.5h1c.827 0 1.5.673 1.5 1.5V12h2.5c.827 0 1.5.673 1.5 1.5v1c0 .827-.673 1.5-1.5 1.5H16v2.5c0 .827-.673 1.5-1.5 1.5zm-5-7a.5.5 0 0 0-.5.5v1a.5.5 0 0 0 .5.5h3a.5.5 0 0 1 .5.5v3a.5.5 0 0 0 .5.5h1a.5.5 0 0 0 .5-.5v-3a.5.5 0 0 1 .5-.5h3a.5.5 0 0 0 .5-.5v-1a.5.5 0 0 0-.5-.5h-3a.5.5 0 0 1-.5-.5v-3a.5.5 0 0 0-.5-.5h-1a.5.5 0 0 0-.5.5v3a.5.5 0 0 1-.5.5h-3z"/></svg>