<svg xmlns="http://www.w3.org/2000/svg" xml:space="preserve" width="128" height="128" viewBox="0 0 28 28"><path fill="#DEFF8F" d="M23.167 7.5C15.507 5.523 8.403 5.933 6 6.5c-6 1.417-4.515 16 .053 17.116 3.816.932 8.578 1.399 11.745.956C26.676 23.333 29.814 9.216 23.167 7.5z"/><path fill="#FFAB66" d="M9.476 10.537C8.75 6.5 16.057 2.621 20 5c4.154 2.505.215 10.938-3.583 11.167-2.246.135-6.071-.788-6.941-5.63z"/><path fill="none" stroke="#000" stroke-linecap="round" stroke-linejoin="round" stroke-miterlimit="10" d="M24.5 6.5h0a1 1 0 0 1 1 1v14a1 1 0 0 1-1 1h-21a1 1 0 0 1-1-1v-14a1 1 0 0 1 1-1h5M16 22.5s0 1.5 1.5 3h-7c1.5-1.5 1.48-3 1.48-3H16zM2.5 19.5h23"/><path fill="none" stroke="#000" stroke-linecap="round" stroke-linejoin="round" stroke-miterlimit="10" d="M18.26 9.56A4.494 4.494 0 0 1 14 15.5c-2.49 0-4.5-2.01-4.5-4.5a4.494 4.494 0 0 1 5.94-4.26"/><path fill="none" stroke="#000" stroke-linecap="round" stroke-linejoin="round" stroke-miterlimit="10" d="M12.94 9.94a1.498 1.498 0 1 0 2.12 2.12M14 11l3.5-3.5M20 7.5h-2.5V5L20 2.5V5h2.5z"/></svg>