<svg xmlns="http://www.w3.org/2000/svg" xml:space="preserve" width="128" height="128" viewBox="0 0 28 28"><path fill="#FF7C66" d="M7.042 25.266c4.172.562 5.98-1.755 6.417-6.953.58-6.896 1.765-22.528-7.793-14.48C2.5 6.5 3.494 24.788 7.042 25.266z"/><path fill="#DEFF8F" d="M18.627 3.262c4.646 2.238 7.125 7.412 6.292 12.501-.696 4.251-2.225 9.196-5.586 10.071-6.083 1.583-6.9-19.562-4.733-22.478.812-1.095 2.349-.903 4.027-.094z"/><path fill="none" stroke="#000" stroke-linecap="round" stroke-linejoin="round" stroke-miterlimit="10" d="M18 16.5a2 2 0 1 1-4 0M14 25.5h-3.5v-4l-3.06.93c-.14.05-.29.07-.44.07-.83 0-1.5-.67-1.5-1.5v-3.5H3c-.28 0-.5-.22-.5-.5 0-.1.03-.19.08-.27l2.34-3.71c.38-.6.58-1.3.58-2.02 0-2.34.95-4.47 2.49-6.01S11.66 2.5 14 2.5v23zM14 4.21c.668-1.02 1.884-1.71 3.286-1.71 2.114 0 3.833 1.57 3.833 3.5 0 .35-.055.69-.164 1.01"/><path fill="none" stroke="#000" stroke-linecap="round" stroke-linejoin="round" stroke-miterlimit="10" d="M21.119 11c-1.205 0-2.19-.9-2.19-2s.986-2 2.19-2c2.42 0 4.381 1.79 4.381 4 0 1.42-.81 2.66-2.026 3.37.591.74.931 1.65.931 2.63 0 1.99-1.413 3.68-3.373 4.27.055.23.088.48.088.73 0 1.93-1.72 3.5-3.833 3.5-1.402 0-2.618-.69-3.286-1.71"/></svg>