<svg xmlns="http://www.w3.org/2000/svg" xml:space="preserve" id="light" width="128" height="128" x="0" y="0" style="enable-background:new 0 0 28 28" version="1.1" viewBox="0 0 28 28"><style>.st0{fill:#ffe577}.st1{fill:#deff8f}.st2{fill:#ff7c66}.st4{fill:#ffa0c6}</style><path d="m22.748 25.083-10.033-2.238a16.07 16.07 0 0 0-2.674-.373c-4.123-.211-6.624-1.696-6.624-6.098 0-4.79 3.919-8.708 8.708-8.708h5.833c4.061 0 6.118 4.372 7.818 7.303a1.49 1.49 0 0 1-.675 2.11 1.505 1.505 0 0 0-.876 1.524c.426 4.113 2.932 6.48-1.477 6.48z" style="fill:#ffab66"/><path d="M14 6c-1.103 0-2-.897-2-2s.897-2 2-2 2 .897 2 2-.897 2-2 2zm0-3c-.551 0-1 .449-1 1s.449 1 1 1 1-.449 1-1-.449-1-1-1zM17.5 11a.5.5 0 0 1-.5-.5v-1c0-.827-.673-1.5-1.5-1.5h-3c-.827 0-1.5.673-1.5 1.5v1a.5.5 0 0 1-1 0v-1C10 8.122 11.122 7 12.5 7h3C16.878 7 18 8.122 18 9.5v1a.5.5 0 0 1-.5.5zM6 21c-1.103 0-2-.897-2-2s.897-2 2-2 2 .897 2 2-.897 2-2 2zm0-3c-.551 0-1 .449-1 1s.449 1 1 1 1-.449 1-1-.449-1-1-1zM9.5 26a.5.5 0 0 1-.5-.5v-1c0-.827-.673-1.5-1.5-1.5h-3c-.827 0-1.5.673-1.5 1.5v1a.5.5 0 0 1-1 0v-1C2 23.122 3.122 22 4.5 22h3c1.378 0 2.5 1.122 2.5 2.5v1a.5.5 0 0 1-.5.5zM22 21c-1.103 0-2-.897-2-2s.897-2 2-2 2 .897 2 2-.897 2-2 2zm0-3c-.551 0-1 .449-1 1s.449 1 1 1 1-.449 1-1-.449-1-1-1zM25.5 26a.5.5 0 0 1-.5-.5v-1c0-.827-.673-1.5-1.5-1.5h-3c-.827 0-1.5.673-1.5 1.5v1a.5.5 0 0 1-1 0v-1c0-1.378 1.122-2.5 2.5-2.5h3c1.378 0 2.5 1.122 2.5 2.5v1a.5.5 0 0 1-.5.5zM22 16a.5.5 0 0 1-.5-.5V14h-15v1.5a.5.5 0 0 1-1 0v-2A.5.5 0 0 1 6 13h16a.5.5 0 0 1 .5.5v2a.5.5 0 0 1-.5.5z"/><path d="M14 14a.5.5 0 0 1-.5-.5v-2a.5.5 0 0 1 1 0v2a.5.5 0 0 1-.5.5z"/></svg>