<svg xmlns="http://www.w3.org/2000/svg" width="128" height="128" viewBox="0 0 25 24"><path fill="#DEFE8F" d="M21.816 5.928c1.588 3.706 2.118 7.942-1.06 13.237-3.275 6.635-6.883-.53-9.53 0-2.647.53-5.824 1.589-7.942-2.118C-.431 10.546 4.343 8.575 6.99 4.34 9.638.103 20.227 2.221 21.816 5.928Z"/><path fill-rule="evenodd" d="M12.5 2.5a3.5 3.5 0 1 0 0 7 3.5 3.5 0 0 0 0-7ZM8 6a4.5 4.5 0 1 1 9 0 4.5 4.5 0 0 1-9 0ZM7.785 11.707a.5.5 0 0 1 .219.342c.015.1.087.248.3.427.211.177.526.355.94.511.828.312 1.973.513 3.256.513 1.282 0 2.428-.2 3.255-.513.415-.156.73-.334.94-.51.214-.18.286-.328.301-.428a.5.5 0 0 1 .618-.41A4.502 4.502 0 0 1 21 16v6a.5.5 0 0 1-.5.5h-16A.5.5 0 0 1 4 22v-6a4.502 4.502 0 0 1 3.386-4.36.5.5 0 0 1 .4.067Zm-.566 1.035A3.502 3.502 0 0 0 5 16v5.5h15V16c0-1.48-.92-2.747-2.219-3.258-.116.188-.27.355-.442.5-.324.272-.75.499-1.23.68-.964.365-2.234.578-3.609.578s-2.645-.213-3.609-.577c-.48-.182-.905-.409-1.23-.681a2.105 2.105 0 0 1-.442-.5Z"/></svg>