<svg xmlns="http://www.w3.org/2000/svg" xml:space="preserve" width="128" height="128" viewBox="0 0 24 24"><path fill="#FF7A55" d="M12 4c-1.103 0-2-.897-2-2s.897-2 2-2 2 .897 2 2-.897 2-2 2zM15.5 9h-7a.5.5 0 0 1-.5-.5v-1C8 6.122 9.121 5 10.5 5h3C14.879 5 16 6.122 16 7.5v1a.5.5 0 0 1-.5.5z"/><path fill="#110638" d="M20 19c-1.103 0-2-.897-2-2s.897-2 2-2 2 .897 2 2-.897 2-2 2zm0-3a1.001 1.001 0 0 0 0 2 1.001 1.001 0 0 0 0-2zM23.5 24a.5.5 0 0 1-.5-.5v-1c0-.827-.673-1.5-1.5-1.5h-3c-.827 0-1.5.673-1.5 1.5v1a.5.5 0 0 1-1 0v-1c0-1.378 1.121-2.5 2.5-2.5h3c1.379 0 2.5 1.122 2.5 2.5v1a.5.5 0 0 1-.5.5zM4 19c-1.103 0-2-.897-2-2s.897-2 2-2 2 .897 2 2-.897 2-2 2zm0-3a1.001 1.001 0 0 0 0 2 1.001 1.001 0 0 0 0-2zM7.5 24a.5.5 0 0 1-.5-.5v-1c0-.827-.673-1.5-1.5-1.5h-3c-.827 0-1.5.673-1.5 1.5v1a.5.5 0 0 1-1 0v-1C0 21.122 1.121 20 2.5 20h3C6.879 20 8 21.122 8 22.5v1a.5.5 0 0 1-.5.5zM15.791 16.093l-3.291-2.35V10.5a.5.5 0 0 0-1 0v3.243l-3.291 2.351a.5.5 0 1 0 .582.813L12 14.615l3.209 2.292a.5.5 0 0 0 .582-.814z"/></svg>