<svg xmlns="http://www.w3.org/2000/svg" xml:space="preserve" id="light" width="128" height="128" x="0" y="0" style="enable-background:new 0 0 28 28" version="1.1" viewBox="0 0 28 28"><style>.st3{fill:#ffab66}</style><path d="M23.261 5.866c-1.883 1.03-2.903 2.971-4.163 1.398-1.073-1.34-.718-3.36.682-4.354 2.37-1.684 3.01-.133 3.922 1.138.444.618.226 1.453-.441 1.818zM10.92 4.438c-5.134 0-9.295 6.099-9.295 11.233s4.162 9.295 9.295 9.295 8.58-4.644 8.58-9.778-3.446-10.75-8.58-10.75zm.08 13.77a2.333 2.333 0 1 1 0-4.666 2.333 2.333 0 0 1 0 4.666z" class="st3"/><path d="M12 26C6.486 26 2 21.514 2 16S6.486 6 12 6s10 4.486 10 10-4.486 10-10 10zm0-19c-4.962 0-9 4.038-9 9s4.038 9 9 9 9-4.038 9-9-4.038-9-9-9z"/><path d="M12 22.5c-3.584 0-6.5-2.916-6.5-6.5S8.416 9.5 12 9.5s6.5 2.916 6.5 6.5-2.916 6.5-6.5 6.5zm0-12c-3.033 0-5.5 2.467-5.5 5.5s2.467 5.5 5.5 5.5 5.5-2.467 5.5-5.5-2.467-5.5-5.5-5.5z"/><path d="M12 19c-1.654 0-3-1.346-3-3s1.346-3 3-3 3 1.346 3 3-1.346 3-3 3zm0-5c-1.103 0-2 .897-2 2s.897 2 2 2 2-.897 2-2-.897-2-2-2z"/><path d="M12 16.5a.5.5 0 0 1-.354-.853l7.5-7.5a.5.5 0 0 1 .707.707l-7.5 7.5A.498.498 0 0 1 12 16.5z"/><path d="M22 9h-2.5a.5.5 0 0 1-.5-.5V6c0-.133.053-.26.146-.354l3.5-3.5a.5.5 0 0 1 .854.354v2h2a.5.5 0 0 1 .354.854l-3.5 3.5A.504.504 0 0 1 22 9zm-2-1h1.793l2.5-2.5H23a.5.5 0 0 1-.5-.5V3.707l-2.5 2.5V8z"/></svg>