<svg xmlns="http://www.w3.org/2000/svg" xml:space="preserve" width="128" height="128" viewBox="0 0 28 28"><path fill="#FF7C66" d="M14.557 2.922c-3.746-.345-10.616 11.869-8.316 14.994s8.673 9.619 13.227 8.075 8.124-13.436 3.992-17.3-5.704-5.475-8.903-5.769z"/><path d="M12.5 23h-4C4.916 23 2 20.084 2 16.5S4.916 10 8.5 10h4a.5.5 0 0 1 .5.5v3a.5.5 0 0 1-.5.5h-4C7.121 14 6 15.121 6 16.5S7.121 19 8.5 19h4a.5.5 0 0 1 .5.5v3a.5.5 0 0 1-.5.5zm-4-12C5.468 11 3 13.468 3 16.5S5.468 22 8.5 22H12v-2H8.5C6.57 20 5 18.43 5 16.5S6.57 13 8.5 13H12v-2H8.5z"/><path d="M9.5 14a.5.5 0 0 1-.5-.5v-3a.5.5 0 0 1 1 0v3a.5.5 0 0 1-.5.5zM9.5 23a.5.5 0 0 1-.5-.5v-3a.5.5 0 0 1 1 0v3a.5.5 0 0 1-.5.5zM20.5 26h-7c-.871 0-1.668-.173-2.37-.513a.5.5 0 1 1 .436-.9c.565.274 1.215.413 1.934.413h7c3.321 0 4.5-2.963 4.5-5.5 0-4.257-2.188-8.646-5.219-10.5H14.08a.5.5 0 0 1 0-1h5.84c.089 0 .177.023.253.068C23.55 10.05 26 14.857 26 19.5c0 3.235-1.7 6.5-5.5 6.5z"/><path d="M20.5 9h-7c-.827 0-1.5-.673-1.5-1.5S12.673 6 13.5 6h7c.827 0 1.5.673 1.5 1.5S21.327 9 20.5 9zm-7-2c-.275 0-.5.225-.5.5s.225.5.5.5h7c.275 0 .5-.225.5-.5s-.225-.5-.5-.5h-7z"/><path d="M19.5 7a.5.5 0 0 1-.313-.891L21.96 3.89a.486.486 0 0 0 .16-.557.483.483 0 0 0-.471-.333H12.35a.488.488 0 0 0-.472.334.488.488 0 0 0 .16.557l2.773 2.219a.5.5 0 0 1-.625.781l-2.773-2.219a1.485 1.485 0 0 1-.479-1.669A1.486 1.486 0 0 1 12.351 2h9.299c.646 0 1.201.394 1.415 1.003.214.61.026 1.265-.479 1.669l-2.773 2.219A.507.507 0 0 1 19.5 7zM17.5 20.5H15a.5.5 0 0 1 0-1h2.5a1 1 0 0 0 0-2h-1c-1.103 0-2-.897-2-2s.897-2 2-2H19a.5.5 0 0 1 0 1h-2.5a1 1 0 0 0 0 2h1c1.103 0 2 .897 2 2s-.897 2-2 2z"/><path d="M17 22a.5.5 0 0 1-.5-.5V20a.5.5 0 0 1 1 0v1.5a.5.5 0 0 1-.5.5zM17 14.5a.5.5 0 0 1-.5-.5v-1.5a.5.5 0 0 1 1 0V14a.5.5 0 0 1-.5.5z"/></svg>