<svg xmlns="http://www.w3.org/2000/svg" xml:space="preserve" width="128" height="128" viewBox="0 0 28 28"><path fill="#FFA0C6" d="M5.897 9.48s1.557 4.885 3.361 3.859S17.813 5.938 16.75 2.5 6.294 7.522 5.897 9.48z"/><path fill="none" stroke="#000" stroke-linecap="round" stroke-linejoin="round" stroke-miterlimit="10" d="M4.5 20.5h5v5h-5zM12.56 15.5h4.94v10h-5zM20.5 10.5h5v15h-5zM16.5 2.5c-2.835.053-5.957 1.735-7.892 3.971l-2.947 3.27 3.597 3.597 3.271-2.947C14.765 8.457 16.447 5.335 16.5 2.5z"/><path fill="none" stroke="#000" stroke-linecap="round" stroke-linejoin="round" stroke-miterlimit="10" d="M12.412 10.496c-.033 1.868-.502 3.908-1.809 5.215l-.706-2.95M6.24 9.103l-2.95-.706C4.597 7.09 6.636 6.621 8.504 6.588M6.3 14.931c-.616.616-3.8 1.569-3.8 1.569s.953-3.184 1.569-3.8A1.576 1.576 0 1 1 6.3 14.931z"/></svg>