<svg xmlns="http://www.w3.org/2000/svg" xml:space="preserve" id="light" width="128" height="128" x="0" y="0" style="enable-background:new 0 0 28 28" version="1.1" viewBox="0 0 28 28"><style>.st1{fill:#deff8f}.st3{fill:#ffab66}</style><path d="M20.33 10.121c-2.236 0-4.066-1.493-4.066-3.319V5.266c0-1.825 1.83-3.319 4.066-3.319 1.53 0 1.202.532.843 1.453-.326.835-.092 1.751.595 2.424.502.492.76 1.12.735 1.761-.053 1.4-.366 2.536-2.173 2.536z" style="fill:#ffa0c6"/><path d="M20.063 23.664c-1.65 0-3 .3-3-1.35l-.125-4.65c0-1.65 1.475-.562 3.125-.562s3 1.35 3 3l.313 2.961c-.001 1.649-1.663.601-3.313.601z" style="fill:#ff7c66"/><path d="M6.244 19.053c-1.489.267-2.727 1.123-2.994-.366l-.84-5.423a2.759 2.759 0 0 1 2.221-3.193c1.489-.267 3.164-.56 3.431.929l.402 4.86a2.757 2.757 0 0 1-2.22 3.193z" style="fill:#ffe577"/><path d="M18.237 12a.5.5 0 0 1-.494-.579l.481-3.005-2.08-2.116a.5.5 0 0 1 .279-.845l2.844-.444 1.269-2.722a.498.498 0 0 1 .45-.289h.002a.5.5 0 0 1 .452.286L22.727 5l2.847.425a.5.5 0 0 1 .286.842l-2.066 2.131.5 3.002a.5.5 0 0 1-.733.52l-2.544-1.394-2.535 1.41a.504.504 0 0 1-.245.064zm-.698-5.707 1.575 1.602a.504.504 0 0 1 .138.43l-.358 2.238 1.877-1.044a.5.5 0 0 1 .483-.002l1.884 1.032-.373-2.236a.499.499 0 0 1 .134-.43l1.564-1.613-2.148-.32a.498.498 0 0 1-.378-.28l-.944-1.993-.932 1.999a.497.497 0 0 1-.376.283l-2.146.334zM18.237 26a.5.5 0 0 1-.494-.579l.481-3.005-2.08-2.116a.5.5 0 0 1 .279-.845l2.844-.444 1.269-2.722a.5.5 0 0 1 .451-.289h.002a.5.5 0 0 1 .452.286L22.727 19l2.847.425a.5.5 0 0 1 .286.842l-2.066 2.131.5 3.002a.5.5 0 0 1-.733.52l-2.544-1.394-2.535 1.41a.504.504 0 0 1-.245.064zm-.698-5.707 1.575 1.602a.504.504 0 0 1 .138.43l-.358 2.238 1.877-1.044a.5.5 0 0 1 .483-.002l1.884 1.032-.373-2.236a.499.499 0 0 1 .134-.43l1.564-1.613-2.148-.32a.498.498 0 0 1-.378-.28l-.944-1.993-.932 1.999a.497.497 0 0 1-.376.283l-2.146.334zM12.5 15.5h-2a.5.5 0 0 1 0-1h2a.5.5 0 0 1 0 1z"/><path d="M15.5 23h-3a.5.5 0 0 1-.5-.5v-14a.5.5 0 0 1 .5-.5h3a.5.5 0 0 1 0 1H13v13h2.5a.5.5 0 0 1 0 1zM6 14c-1.103 0-2-.897-2-2s.897-2 2-2 2 .897 2 2-.897 2-2 2zm0-3a1 1 0 1 0 0 2 1 1 0 0 0 0-2zM9.5 19a.5.5 0 0 1-.5-.5v-1c0-.827-.673-1.5-1.5-1.5h-3c-.827 0-1.5.673-1.5 1.5v1a.5.5 0 0 1-1 0v-1C2 16.121 3.121 15 4.5 15h3c1.379 0 2.5 1.121 2.5 2.5v1a.5.5 0 0 1-.5.5z"/></svg>