<svg xmlns="http://www.w3.org/2000/svg" xml:space="preserve" id="light" width="128" height="128" x="0" y="0" style="enable-background:new 0 0 28 28" version="1.1" viewBox="0 0 28 28"><style>.st0{fill:#ffe577}.st2{fill:#ff7c66}.st3{fill:#ffab66}.st4{fill:#ffa0c6}</style><path d="m16.867 19.603-2.691.197a9.627 9.627 0 0 1-6.053-1.604c-.9-.605-1.832-1.123-3.122-1.316-1.816-.271-2.501-1.116-2.501-3.747 0-3.827 3.496-6.958 7.768-6.958h1.677c2.952 0 5.887.698 8.325 2.19 1.851 1.132 3.256 2.582 3.256 4.769 0 3.38-2.897 6.195-6.659 6.469z" style="fill:#deff8f"/><path d="M16.486 17.17c-.481 0-.957-.184-1.319-.547l-1.02-1.02a.5.5 0 0 1 .707-.707l1.02 1.02a.886.886 0 0 0 1.253 0c.386-.385.386-.947.04-1.293l-3.02-3.02a.5.5 0 0 1 .707-.707l3.02 3.02a1.888 1.888 0 0 1 0 2.668 1.959 1.959 0 0 1-1.388.586zM5.5 10.5a.501.501 0 0 1-.19-.963l4.28-1.76a2.486 2.486 0 0 1 2.694.549l.57.57a.5.5 0 0 1-.707.707l-.57-.57a1.478 1.478 0 0 0-1.609-.329L5.69 10.463a.51.51 0 0 1-.19.037z"/><path d="M12.794 12.457c-.479 0-.95-.187-1.305-.542a1.832 1.832 0 0 1-.517-1.601 1.824 1.824 0 0 1 .996-1.355l3.489-1.746a2.512 2.512 0 0 1 2.081-.072l5.154 2.147a.5.5 0 0 1-.385.924l-5.154-2.147a1.499 1.499 0 0 0-1.248.043l-3.489 1.746c-.246.123-.412.35-.456.621s.042.539.237.733a.847.847 0 0 0 .979.158l3.099-1.562a.5.5 0 1 1 .45.893l-3.1 1.562a1.843 1.843 0 0 1-.831.198zM14.542 19.134a1.87 1.87 0 0 1-1.333-.552l-1.271-1.271a.5.5 0 0 1 .707-.707l1.271 1.271a.906.906 0 0 0 1.251 0c.167-.167.259-.389.259-.625s-.092-.458-.259-.625l-1.021-1.021a.5.5 0 0 1 .707-.707l1.021 1.021c.356.355.552.828.552 1.332s-.196.977-.552 1.332a1.87 1.87 0 0 1-1.332.552z"/><path d="M12.317 20.852a1.87 1.87 0 0 1-1.308-.528l-2.295-2.082A4.764 4.764 0 0 0 5.5 17a.5.5 0 0 1 0-1c1.44 0 2.821.533 3.886 1.501l2.307 2.094a.893.893 0 0 0 1.254.003c.181-.182.272-.403.272-.64s-.092-.458-.259-.625l-1.021-1.021a.5.5 0 0 1 .707-.707l1.021 1.021c.356.355.552.828.552 1.332s-.196.977-.552 1.332a1.9 1.9 0 0 1-1.35.562zM20.052 17.482c-.271 0-.545-.044-.809-.135l-1.885-.645a.5.5 0 0 1 .323-.946l1.886.645a1.505 1.505 0 0 0 1.474-.29l1.13-.988a.499.499 0 1 1 .659.752l-1.13.989a2.5 2.5 0 0 1-1.648.618z"/><path d="M25.5 18h-3a.5.5 0 0 1-.5-.5v-9a.5.5 0 0 1 .5-.5h3a.5.5 0 0 1 .5.5v9a.5.5 0 0 1-.5.5zM23 17h2V9h-2v8zM5.5 18h-3a.5.5 0 0 1-.5-.5v-9a.5.5 0 0 1 .5-.5h3a.5.5 0 0 1 .5.5v9a.5.5 0 0 1-.5.5zM3 17h2V9H3v8z"/></svg>