<svg xmlns="http://www.w3.org/2000/svg" xml:space="preserve" id="light" width="128" height="128" x="0" y="0" style="enable-background:new 0 0 28 28" version="1.1" viewBox="0 0 28 28"><style>.st0{fill:#ffe577}.st1{fill:#deff8f}.st2{fill:#ff7c66}.st4{fill:#ffa0c6}</style><path d="M22.167 14.612c0 6.455-2.733 13.25-6.875 13.25s-9.625-4.295-9.625-10.75 3.983-9.25 8.125-9.25 8.375.295 8.375 6.75z" style="fill:#ffab66"/><path d="M14 6c-1.103 0-2-.897-2-2s.897-2 2-2 2 .897 2 2-.897 2-2 2zm0-3a1.001 1.001 0 0 0 0 2 1.001 1.001 0 0 0 0-2zM17.5 11a.5.5 0 0 1-.5-.5v-1c0-.827-.673-1.5-1.5-1.5h-3c-.827 0-1.5.673-1.5 1.5v1a.5.5 0 0 1-1 0v-1C10 8.122 11.121 7 12.5 7h3C16.879 7 18 8.122 18 9.5v1a.5.5 0 0 1-.5.5zM22 21c-1.103 0-2-.897-2-2s.897-2 2-2 2 .897 2 2-.897 2-2 2zm0-3a1.001 1.001 0 0 0 0 2 1.001 1.001 0 0 0 0-2zM25.5 26a.5.5 0 0 1-.5-.5v-1c0-.827-.673-1.5-1.5-1.5h-3c-.827 0-1.5.673-1.5 1.5v1a.5.5 0 0 1-1 0v-1c0-1.378 1.121-2.5 2.5-2.5h3c1.379 0 2.5 1.122 2.5 2.5v1a.5.5 0 0 1-.5.5zM6 21c-1.103 0-2-.897-2-2s.897-2 2-2 2 .897 2 2-.897 2-2 2zm0-3a1.001 1.001 0 0 0 0 2 1.001 1.001 0 0 0 0-2zM9.5 26a.5.5 0 0 1-.5-.5v-1c0-.827-.673-1.5-1.5-1.5h-3c-.827 0-1.5.673-1.5 1.5v1a.5.5 0 0 1-1 0v-1C2 23.122 3.121 22 4.5 22h3c1.379 0 2.5 1.122 2.5 2.5v1a.5.5 0 0 1-.5.5zM10.5 19a.5.5 0 0 1-.291-.906l3.291-2.351V12.5a.5.5 0 0 1 1 0V16a.5.5 0 0 1-.209.407l-3.5 2.5A.5.5 0 0 1 10.5 19z"/><path d="M17.5 19a.5.5 0 0 1-.291-.093l-3.5-2.5a.5.5 0 1 1 .582-.813l3.5 2.5A.5.5 0 0 1 17.5 19z"/></svg>