<svg xmlns="http://www.w3.org/2000/svg" xml:space="preserve" id="light" width="128" height="128" x="0" y="0" style="enable-background:new 0 0 28 28" version="1.1" viewBox="0 0 28 28"><style>.st0{fill:#ffe577}.st1{fill:#deff8f}.st2{fill:#ff7c66}.st3{fill:#ffab66}</style><path d="M17.777 24.575H7.871c-3.646 0-6.477 1.4-6.63-8.119 0-4.466.533-8.866 6.63-8.119h9.907c4.801-.91 5.639.864 5.639 7.303 0 4.465-1.993 8.935-5.64 8.935z" style="fill:#ffa0c6"/><path d="M23.5 24h-19A2.503 2.503 0 0 1 2 21.5v-12C2 8.122 3.122 7 4.5 7h19C24.878 7 26 8.122 26 9.5v12c0 1.378-1.122 2.5-2.5 2.5zM4.5 8C3.673 8 3 8.673 3 9.5v12c0 .827.673 1.5 1.5 1.5h19c.827 0 1.5-.673 1.5-1.5v-12c0-.827-.673-1.5-1.5-1.5h-19z"/><path d="M17.5 8a.5.5 0 0 1-.5-.5v-2a.5.5 0 0 0-.5-.5h-5a.5.5 0 0 0-.5.5v2a.5.5 0 0 1-1 0v-2c0-.827.673-1.5 1.5-1.5h5c.827 0 1.5.673 1.5 1.5v2a.5.5 0 0 1-.5.5zM25.5 14h-23a.5.5 0 0 1 0-1h23a.5.5 0 0 1 0 1z"/><path d="M8.5 16.167a.5.5 0 0 1-.5-.5V11.5a.5.5 0 0 1 1 0v4.167a.5.5 0 0 1-.5.5zM19.5 16.167a.5.5 0 0 1-.5-.5V11.5a.5.5 0 0 1 1 0v4.167a.5.5 0 0 1-.5.5z"/></svg>